<svg height="746.13" width="981.823" xmlns="http://www.w3.org/2000/svg"><g fill="none" transform="translate(1.438056 -11.025636)"><g stroke="#000" stroke-width="4.266667"><path d="m22.546862 34.152116 934.406788-.990887 1.294 701.855151-468.99284-1.29778z"/><path d="m490.24569 34.152116 231.86765 699.566484"/><path d="m179.10706 268.00153 777.84659-.99089"/></g><path d="m335.46492 501.85381 619.50504-1.98558h.9928v-.9928" stroke="#060000" stroke-width="4.275"/></g><g><g transform="translate(-98.314378 -11.025636)"><path d="m838.72503 717.38324a19.200001 19.200001 0 0 1 -19.20001 19.2 19.200001 19.200001 0 0 1 -19.2-19.2 19.200001 19.200001 0 0 1 19.2-19.2 19.200001 19.200001 0 0 1 19.20001 19.2z"/><path d="m486.90625 564.49609v-7.03125h-7.40625q-4.28125 0-6.375 1.84375-2.09375 1.84375-2.09375 5.65625 0 3.46875 2.125 5.5 2.125 2.03125 5.75 2.03125 3.59375 0 5.78125-2.21875 2.21875-2.21875 2.21875-5.78125zm5.75-10.3125v17.4375h5.125v3.3125h-10.875v-3.59375q-1.90625 2.3125-4.40625 3.40625-2.5 1.09375-5.84375 1.09375-5.53125 0-8.78125-2.9375-3.25-2.9375-3.25-7.9375 0-5.15625 3.71875-8 3.71875-2.84375 10.5-2.84375h8.0625v-2.28125q0-3.78125-2.3125-5.84375-2.28125-2.09375-6.4375-2.09375-3.4375 0-5.46875 1.5625-2.03125 1.5625-2.53125 4.625h-2.96875v-6.71875q3-1.28125 5.8125-1.90625 2.84375-.65625 5.53125-.65625 6.90625 0 10.5 3.4375 3.625 3.40625 3.625 9.9375z" fill="#000001" transform="translate(299.66408 126.00216)"/></g><g transform="translate(1.438056 -11.025636)"><path d="m74.015316 51.393204a19.200001 19.200001 0 0 1 -19.200001 19.2 19.200001 19.200001 0 0 1 -19.200001-19.2 19.200001 19.200001 0 0 1 19.200001-19.200001 19.200001 19.200001 0 0 1 19.200001 19.200001z"/><path d="m467.65625 531.40234q0-1.4375 1.03125-2.5 1.0625-1.0625 2.53125-1.0625 1.4375 0 2.46875 1.0625 1.0625 1.0625 1.0625 2.5 0 1.46875-1.03125 2.5-1.03125 1.03125-2.5 1.03125-1.46875 0-2.53125-1.03125-1.03125-1.03125-1.03125-2.5zm7.34375 40.21875h5.4375v3.3125h-16.6875v-3.3125h5.5v-26.5625h-5.5v-3.34375h11.25z" transform="translate(-378.37057 -480.79012)"/></g><g transform="translate(406.947886 -272.979126)"><path d="m550.00817 643.30951a19.200001 19.200001 0 0 1 -19.2 19.2 19.200001 19.200001 0 0 1 -19.2-19.2 19.200001 19.200001 0 0 1 19.2-19.2 19.200001 19.200001 0 0 1 19.2 19.2z"/><path d="m480.6875 572.74609q4.625 0 6.96875-3.65625 2.375-3.65625 2.375-10.78125 0-7.125-2.375-10.75-2.34375-3.65625-6.96875-3.65625-4.625 0-7 3.65625-2.34375 3.625-2.34375 10.75 0 7.125 2.375 10.78125 2.375 3.65625 6.96875 3.65625zm0 3.09375q-7.25 0-11.65625-4.78125-4.40625-4.8125-4.40625-12.75 0-7.9375 4.375-12.71875 4.40625-4.78125 11.6875-4.78125 7.28125 0 11.65625 4.78125 4.40625 4.78125 4.40625 12.71875 0 7.9375-4.40625 12.75-4.375 4.78125-11.65625 4.78125z" fill="#000001" transform="translate(2.89934 84.149214)"/></g><g transform="translate(363.151826 -593.383416)"><path d="m550.00817 643.30951a19.200001 19.200001 0 0 1 -19.2 19.2 19.200001 19.200001 0 0 1 -19.2-19.2 19.200001 19.200001 0 0 1 19.2-19.2 19.200001 19.200001 0 0 1 19.2 19.2z"/><path d="m484.09375 547.71484h10.75v29.90625h5.4375v3.3125h-11.1875v-5.875q-1.59375 3.3125-4.125 5.0625-2.53125 1.71875-5.875 1.71875-5.53125 0-8.15625-3.125-2.59375-3.15625-2.59375-9.875v-17.78125h-5.1875v-3.34375h10.96875v19.34375q0 6.0625 1.46875 8.3125 1.5 2.25 5.3125 2.25 4 0 6.09375-2.9375 2.09375-2.9375 2.09375-8.53125v-15.09375h-5z" fill="#000001" transform="translate(2.89934 84.149214)"/></g><g transform="translate(1.438056 -11.025636)"><path d="m292.92299 379.25424a19.200001 19.200001 0 0 1 -19.2 19.2 19.200001 19.200001 0 0 1 -19.2-19.2 19.200001 19.200001 0 0 1 19.2-19.2 19.200001 19.200001 0 0 1 19.2 19.2z"/><path d="m494.125 558.93359h-24.78125v.25q0 6.71875 2.53125 10.15625 2.53125 3.40625 7.46875 3.40625 3.78125 0 6.1875-1.96875 2.4375-2 3.40625-5.90625h4.625q-1.375 5.46875-5.09375 8.21875-3.6875 2.75-9.71875 2.75-7.28125 0-11.71875-4.78125-4.40625-4.8125-4.40625-12.75 0-7.875 4.34375-12.6875 4.34375-4.8125 11.40625-4.8125 7.53125 0 11.5625 4.65625 4.03125 4.625 4.1875 13.46875zm-6.78125-3.3125q-.1875-5.8125-2.46875-8.75-2.25-2.96875-6.5-2.96875-3.96875 0-6.25 2.96875-2.28125 2.96875-2.78125 8.75z" transform="translate(-222.94966 -222.15743)"/></g></g></svg>